<svg xmlns="http://www.w3.org/2000/svg" width="15" height="14" viewBox="0 0 15 14" fill="none"><g clip-path="url(#clip0_691_468)"><path d="M12.8149 1.3125H11.5024V1.09375C11.5024 0.919702 11.4333 0.752782 11.3102 0.629711C11.1872 0.50664 11.0202 0.4375 10.8462 0.4375C10.6721 0.4375 10.5052 0.50664 10.3822 0.629711C10.2591 0.752782 10.1899 0.919702 10.1899 1.09375V1.3125H8.00244V1.09375C8.00244 0.919702 7.9333 0.752782 7.81023 0.629711C7.68716 0.50664 7.52024 0.4375 7.34619 0.4375C7.17214 0.4375 7.00522 0.50664 6.88215 0.629711C6.75908 0.752782 6.68994 0.919702 6.68994 1.09375V1.3125H4.50244V1.09375C4.50244 0.919702 4.4333 0.752782 4.31023 0.629711C4.18716 0.50664 4.02024 0.4375 3.84619 0.4375C3.67214 0.4375 3.50522 0.50664 3.38215 0.629711C3.25908 0.752782 3.18994 0.919702 3.18994 1.09375V1.3125H1.87744C1.58746 1.31283 1.30945 1.42816 1.1044 1.63321C0.899356 1.83826 0.784017 2.11627 0.783691 2.40625V12.4688C0.784017 12.7587 0.899356 13.0367 1.1044 13.2418C1.30945 13.4468 1.58746 13.5622 1.87744 13.5625H12.8149C13.1049 13.5622 13.3829 13.4468 13.588 13.2418C13.793 13.0367 13.9084 12.7587 13.9087 12.4688V2.40625C13.9084 2.11627 13.793 1.83826 13.588 1.63321C13.3829 1.42816 13.1049 1.31283 12.8149 1.3125ZM10.6274 1.09375C10.6274 1.03573 10.6505 0.980094 10.6915 0.93907C10.7325 0.898047 10.7882 0.875 10.8462 0.875C10.9042 0.875 10.9598 0.898047 11.0009 0.93907C11.0419 0.980094 11.0649 1.03573 11.0649 1.09375V2.40625C11.0649 2.46427 11.0419 2.51991 11.0009 2.56093C10.9598 2.60195 10.9042 2.625 10.8462 2.625C10.7882 2.625 10.7325 2.60195 10.6915 2.56093C10.6505 2.51991 10.6274 2.46427 10.6274 2.40625V1.09375ZM7.12744 1.09375C7.12744 1.03573 7.15049 0.980094 7.19151 0.93907C7.23254 0.898047 7.28818 0.875 7.34619 0.875C7.40421 0.875 7.45985 0.898047 7.50087 0.93907C7.54189 0.980094 7.56494 1.03573 7.56494 1.09375V2.40625C7.56494 2.46427 7.54189 2.51991 7.50087 2.56093C7.45985 2.60195 7.40421 2.625 7.34619 2.625C7.28818 2.625 7.23254 2.60195 7.19151 2.56093C7.15049 2.51991 7.12744 2.46427 7.12744 2.40625V1.09375ZM3.62744 1.09375C3.62744 1.03573 3.65049 0.980094 3.69151 0.93907C3.73254 0.898047 3.78818 0.875 3.84619 0.875C3.90421 0.875 3.95985 0.898047 4.00087 0.93907C4.04189 0.980094 4.06494 1.03573 4.06494 1.09375V2.40625C4.06494 2.46427 4.04189 2.51991 4.00087 2.56093C3.95985 2.60195 3.90421 2.625 3.84619 2.625C3.78818 2.625 3.73254 2.60195 3.69151 2.56093C3.65049 2.51991 3.62744 2.46427 3.62744 2.40625V1.09375ZM1.87744 1.75H3.18994V2.40625C3.18994 2.5803 3.25908 2.74722 3.38215 2.87029C3.50522 2.99336 3.67214 3.0625 3.84619 3.0625C4.02024 3.0625 4.18716 2.99336 4.31023 2.87029C4.4333 2.74722 4.50244 2.5803 4.50244 2.40625V1.75H6.68994V2.40625C6.68994 2.5803 6.75908 2.74722 6.88215 2.87029C7.00522 2.99336 7.17214 3.0625 7.34619 3.0625C7.52024 3.0625 7.68716 2.99336 7.81023 2.87029C7.9333 2.74722 8.00244 2.5803 8.00244 2.40625V1.75H10.1899V2.40625C10.1899 2.5803 10.2591 2.74722 10.3822 2.87029C10.5052 2.99336 10.6721 3.0625 10.8462 3.0625C11.0202 3.0625 11.1872 2.99336 11.3102 2.87029C11.4333 2.74722 11.5024 2.5803 11.5024 2.40625V1.75H12.8149C12.9889 1.7502 13.1557 1.81941 13.2788 1.94243C13.4018 2.06546 13.471 2.23226 13.4712 2.40625V3.9375H1.22119V2.40625C1.22139 2.23226 1.2906 2.06546 1.41363 1.94243C1.53665 1.81941 1.70346 1.7502 1.87744 1.75ZM12.8149 13.125H1.87744C1.70346 13.1248 1.53665 13.0556 1.41363 12.9326C1.2906 12.8095 1.22139 12.6427 1.22119 12.4688V4.375H13.4712V12.4688C13.471 12.6427 13.4018 12.8095 13.2788 12.9326C13.1557 13.0556 12.9889 13.1248 12.8149 13.125Z" fill="white"></path><path d="M12.3774 5.90625H11.5024C11.4444 5.90625 11.3888 5.9293 11.3478 5.97032C11.3067 6.01134 11.2837 6.06698 11.2837 6.125V7C11.2837 7.05802 11.3067 7.11366 11.3478 7.15468C11.3888 7.1957 11.4444 7.21875 11.5024 7.21875H12.3774C12.4355 7.21875 12.4911 7.1957 12.5321 7.15468C12.5731 7.11366 12.5962 7.05802 12.5962 7V6.125C12.5962 6.06698 12.5731 6.01134 12.5321 5.97032C12.4911 5.9293 12.4355 5.90625 12.3774 5.90625ZM12.1587 6.78125H11.7212V6.34375H12.1587V6.78125Z" fill="white"></path><path d="M8.00244 10.2812H7.12744C7.06943 10.2812 7.01379 10.3043 6.97276 10.3453C6.93174 10.3863 6.90869 10.442 6.90869 10.5V11.375C6.90869 11.433 6.93174 11.4887 6.97276 11.5297C7.01379 11.5707 7.06943 11.5938 7.12744 11.5938H8.00244C8.06046 11.5938 8.1161 11.5707 8.15712 11.5297C8.19814 11.4887 8.22119 11.433 8.22119 11.375V10.5C8.22119 10.442 8.19814 10.3863 8.15712 10.3453C8.1161 10.3043 8.06046 10.2812 8.00244 10.2812ZM7.78369 11.1562H7.34619V10.7188H7.78369V11.1562Z" fill="white"></path><path d="M5.81494 5.90625H4.93994C4.88193 5.90625 4.82629 5.9293 4.78526 5.97032C4.74424 6.01134 4.72119 6.06698 4.72119 6.125V7C4.72119 7.05802 4.74424 7.11366 4.78526 7.15468C4.82629 7.1957 4.88193 7.21875 4.93994 7.21875H5.81494C5.87296 7.21875 5.9286 7.1957 5.96962 7.15468C6.01064 7.11366 6.03369 7.05802 6.03369 7V6.125C6.03369 6.06698 6.01064 6.01134 5.96962 5.97032C5.9286 5.9293 5.87296 5.90625 5.81494 5.90625ZM5.59619 6.78125H5.15869V6.34375H5.59619V6.78125Z" fill="white"></path><path d="M3.62744 8.09375H2.75244C2.69443 8.09375 2.63879 8.1168 2.59776 8.15782C2.55674 8.19884 2.53369 8.25448 2.53369 8.3125V9.1875C2.53369 9.24552 2.55674 9.30116 2.59776 9.34218C2.63879 9.3832 2.69443 9.40625 2.75244 9.40625H3.62744C3.68546 9.40625 3.7411 9.3832 3.78212 9.34218C3.82314 9.30116 3.84619 9.24552 3.84619 9.1875V8.3125C3.84619 8.25448 3.82314 8.19884 3.78212 8.15782C3.7411 8.1168 3.68546 8.09375 3.62744 8.09375ZM3.40869 8.96875H2.97119V8.53125H3.40869V8.96875Z" fill="white"></path><path d="M5.81494 8.09375H4.93994C4.88193 8.09375 4.82629 8.1168 4.78526 8.15782C4.74424 8.19884 4.72119 8.25448 4.72119 8.3125V9.1875C4.72119 9.24552 4.74424 9.30116 4.78526 9.34218C4.82629 9.3832 4.88193 9.40625 4.93994 9.40625H5.81494C5.87296 9.40625 5.9286 9.3832 5.96962 9.34218C6.01064 9.30116 6.03369 9.24552 6.03369 9.1875V8.3125C6.03369 8.25448 6.01064 8.19884 5.96962 8.15782C5.9286 8.1168 5.87296 8.09375 5.81494 8.09375ZM5.59619 8.96875H5.15869V8.53125H5.59619V8.96875Z" fill="white"></path><path d="M3.62744 10.2812H2.75244C2.69443 10.2812 2.63879 10.3043 2.59776 10.3453C2.55674 10.3863 2.53369 10.442 2.53369 10.5V11.375C2.53369 11.433 2.55674 11.4887 2.59776 11.5297C2.63879 11.5707 2.69443 11.5938 2.75244 11.5938H3.62744C3.68546 11.5938 3.7411 11.5707 3.78212 11.5297C3.82314 11.4887 3.84619 11.433 3.84619 11.375V10.5C3.84619 10.442 3.82314 10.3863 3.78212 10.3453C3.7411 10.3043 3.68546 10.2812 3.62744 10.2812ZM3.40869 11.1562H2.97119V10.7188H3.40869V11.1562Z" fill="white"></path><path d="M5.81494 10.2812H4.93994C4.88193 10.2812 4.82629 10.3043 4.78526 10.3453C4.74424 10.3863 4.72119 10.442 4.72119 10.5V11.375C4.72119 11.433 4.74424 11.4887 4.78526 11.5297C4.82629 11.5707 4.88193 11.5938 4.93994 11.5938H5.81494C5.87296 11.5938 5.9286 11.5707 5.96962 11.5297C6.01064 11.4887 6.03369 11.433 6.03369 11.375V10.5C6.03369 10.442 6.01064 10.3863 5.96962 10.3453C5.9286 10.3043 5.87296 10.2812 5.81494 10.2812ZM5.59619 11.1562H5.15869V10.7188H5.59619V11.1562Z" fill="white"></path><path d="M10.4417 6.80816L9.34799 6.64103L8.85673 5.59456C8.83908 5.55695 8.81108 5.52514 8.77601 5.50286C8.74094 5.48058 8.70026 5.46875 8.65871 5.46875C8.61716 5.46875 8.57647 5.48058 8.5414 5.50286C8.50634 5.52514 8.47834 5.55695 8.46068 5.59456L7.96965 6.64103L6.8759 6.80816C6.83611 6.81421 6.79877 6.83112 6.76798 6.85703C6.73719 6.88293 6.71414 6.91683 6.70137 6.95499C6.6886 6.99315 6.6866 7.03409 6.6956 7.07331C6.70459 7.11254 6.72423 7.14852 6.75236 7.1773L7.55027 7.99507L7.3616 9.15242C7.35508 9.19288 7.36005 9.23436 7.37595 9.27213C7.39185 9.3099 7.41804 9.34245 7.45153 9.36606C7.48503 9.38967 7.52449 9.40339 7.56541 9.40567C7.60633 9.40795 7.64706 9.39868 7.68297 9.37893L8.65871 8.8396L9.63444 9.37893C9.67037 9.39879 9.71117 9.40814 9.75216 9.40591C9.79315 9.40368 9.83269 9.38996 9.86625 9.36631C9.89981 9.34267 9.92605 9.31006 9.94195 9.27221C9.95785 9.23436 9.96278 9.1928 9.95617 9.15228L9.7675 7.99493L10.5654 7.17716C10.5935 7.14838 10.6132 7.1124 10.6222 7.07318C10.6312 7.03396 10.6292 6.99301 10.6164 6.95485C10.6036 6.91669 10.5806 6.8828 10.5498 6.85689C10.519 6.83098 10.4817 6.81407 10.4419 6.80802L10.4417 6.80816ZM9.37714 7.76839C9.35322 7.79289 9.3354 7.82267 9.32509 7.85532C9.31479 7.88797 9.31229 7.92258 9.3178 7.95637L9.45179 8.77808L8.76447 8.398C8.73208 8.3801 8.69567 8.3707 8.65865 8.3707C8.62164 8.3707 8.58523 8.3801 8.55283 8.398L7.86552 8.77808L7.9995 7.95637C8.00502 7.92258 8.00252 7.88797 7.99221 7.85532C7.98191 7.82267 7.96408 7.79289 7.94017 7.76839L7.36261 7.17634L8.15102 7.05603C8.18652 7.0506 8.22015 7.03651 8.24892 7.01501C8.27769 6.9935 8.30072 6.96525 8.31598 6.93273L8.65871 6.20235L9.00146 6.9326C9.01672 6.96511 9.03976 6.99337 9.06853 7.01487C9.0973 7.03637 9.13092 7.05046 9.16643 7.05589L9.95483 7.1762L9.37714 7.76839Z" fill="white"></path><path d="M12.3774 8.09375H11.5024C11.4444 8.09375 11.3888 8.1168 11.3478 8.15782C11.3067 8.19884 11.2837 8.25448 11.2837 8.3125V9.1875C11.2837 9.24552 11.3067 9.30116 11.3478 9.34218C11.3888 9.3832 11.4444 9.40625 11.5024 9.40625H12.3774C12.4355 9.40625 12.4911 9.3832 12.5321 9.34218C12.5731 9.30116 12.5962 9.24552 12.5962 9.1875V8.3125C12.5962 8.25448 12.5731 8.19884 12.5321 8.15782C12.4911 8.1168 12.4355 8.09375 12.3774 8.09375ZM12.1587 8.96875H11.7212V8.53125H12.1587V8.96875Z" fill="white"></path><path d="M12.3774 10.2812H11.5024C11.4444 10.2812 11.3888 10.3043 11.3478 10.3453C11.3067 10.3863 11.2837 10.442 11.2837 10.5V11.375C11.2837 11.433 11.3067 11.4887 11.3478 11.5297C11.3888 11.5707 11.4444 11.5938 11.5024 11.5938H12.3774C12.4355 11.5938 12.4911 11.5707 12.5321 11.5297C12.5731 11.4887 12.5962 11.433 12.5962 11.375V10.5C12.5962 10.442 12.5731 10.3863 12.5321 10.3453C12.4911 10.3043 12.4355 10.2812 12.3774 10.2812ZM12.1587 11.1562H11.7212V10.7188H12.1587V11.1562Z" fill="white"></path><path d="M10.1899 10.2812H9.31494C9.25693 10.2812 9.20129 10.3043 9.16026 10.3453C9.11924 10.3863 9.09619 10.442 9.09619 10.5V11.375C9.09619 11.433 9.11924 11.4887 9.16026 11.5297C9.20129 11.5707 9.25693 11.5938 9.31494 11.5938H10.1899C10.248 11.5938 10.3036 11.5707 10.3446 11.5297C10.3856 11.4887 10.4087 11.433 10.4087 11.375V10.5C10.4087 10.442 10.3856 10.3863 10.3446 10.3453C10.3036 10.3043 10.248 10.2812 10.1899 10.2812ZM9.97119 11.1562H9.53369V10.7188H9.97119V11.1562Z" fill="white"></path></g><defs><clipPath id="clip0_691_468"><rect width="14" height="14" fill="white" transform="translate(0.346191)"></rect></clipPath></defs></svg>